<?xml version="1.0" encoding="utf-8"?>
<svg viewBox="0 0 2303.939 1138.629" width="2303.94px" height="1138.63px" xmlns="http://www.w3.org/2000/svg">
  <path style="stroke-miterlimit: 30; paint-order: stroke; opacity: 1; stroke-width: 25px;" d="M 358.03 614.15 L 388.53 610.77 L 76.61 126.99 L 679.76 319.07 L 712.77 411.12 L 679.91 401.77 L 708.23 506.14 L 672.73 545.52 L 466.76 565.58 L 480.19 600.6 L 721.42 573.83 L 520.36 851.88 L 315.03 1011.63 L 317.63 1003.92 L 491.07 817.16 L 605.61 653.01 L 501.29 670.92 L 500.65 784.66 L 434.69 682.35 L 226.64 718.07 L 358.03 614.15 Z M 341 301.66 L 432.33 499.95 L 648.8 501.29 L 616.39 376.03 L 341 301.66 Z M 910.33 564.23 L 881.71 606.7 L 773.59 625.3 L 642.26 716.82 L 643.74 710.57 L 742.67 578.48 L 732.66 569.85 L 717.91 481.48 L 756.97 378.59 L 696.59 324.43 L 857.24 375.6 L 910.33 564.23 Z M 783.87 387.34 L 745.91 488.55 L 759.26 558.21 L 771.61 568.79 L 878.85 556.46 L 883.54 542.17 L 846.45 399.18 L 783.87 387.34 Z M 923.56 579.3 L 981.37 630.36 L 846.26 809.2 L 629.03 963.31 L 632.02 958.32 L 819.72 784.38 L 927.37 634.09 L 915.22 623.59 L 850.12 687.2 L 923.56 579.3 Z M 1003.46 623.85 L 918.69 550.72 L 883.39 434.54 L 921.84 396.17 L 1003.45 422.16 L 1017.04 458.93 L 1021.88 556.25 L 978.21 446.1 L 931.33 433.62 L 960.93 528.58 L 1025.57 589.79 L 1043.63 640.6 L 911.3 834.65 L 691.09 1011.42 L 695.6 1004.18 L 890.98 800.54 L 1003.46 623.85 Z M 1139.5 522.04 L 1106.7 561.43 L 1114.56 518.32 L 1099.76 476 L 1056.09 465.1 L 1071.69 528.28 L 1110.67 570.77 L 1121.3 598.35 L 1070.46 726.73 L 965.16 861.55 L 965.54 857.67 L 1038.22 736.49 L 1085.43 597.34 L 1081.18 580.84 L 1047.05 547.34 L 1021.48 427.9 L 1121.4 459.72 L 1139.5 522.04 Z M 1125.3 722.57 L 1112.7 784.77 L 1105.24 738.51 L 1001.12 841.52 L 1002.43 837.12 L 1084.04 734.33 L 1118.88 631.66 L 1125.3 722.57 Z M 1185.06 631.66 L 1219.9 734.33 L 1301.5 837.12 L 1302.82 841.52 L 1198.69 738.51 L 1191.23 784.77 L 1178.64 722.57 L 1185.06 631.66 Z M 1182.54 459.72 L 1217.12 448.71 L 1208.97 474.81 L 1204.18 476 L 1189.37 518.32 L 1197.23 561.43 L 1164.43 522.04 L 1182.54 459.72 Z M 1282.46 427.9 L 1256.89 547.34 L 1222.76 580.84 L 1218.51 597.34 L 1265.72 736.49 L 1338.4 857.67 L 1338.77 861.55 L 1233.48 726.73 L 1182.64 598.35 L 1193.27 570.77 L 1232.25 528.28 L 1247.85 465.1 L 1224.71 470.87 L 1233.7 443.43 L 1282.46 427.9 Z M 1412.96 800.54 L 1608.34 1004.18 L 1612.85 1011.42 L 1392.64 834.65 L 1260.3 640.6 L 1278.36 589.79 L 1280.92 587.35 L 1286.9 458.93 L 1300.48 422.16 L 1382.1 396.17 L 1399.66 413.7 L 1413.87 386.05 L 1437.47 378.53 L 1385.25 550.72 L 1300.48 623.85 L 1412.96 800.54 Z M 1298.44 571.06 L 1343.01 528.58 L 1372.62 433.6 L 1325.71 445.99 L 1296.57 519.12 L 1298.44 571.06 Z M 1453.82 687.2 L 1388.71 623.59 L 1376.57 634.09 L 1484.21 784.38 L 1671.91 958.32 L 1674.91 963.31 L 1457.67 809.2 L 1322.57 630.36 L 1380.38 579.3 L 1453.82 687.2 Z M 1568.02 434.05 L 1586.03 481.48 L 1568.88 585.85 L 1660.12 710.23 L 1661.54 716.26 L 1601.9 670.57 L 1536.41 598.55 L 1534.81 562.12 L 1543.16 559.33 L 1548.62 530.64 L 1424.82 530.03 L 1421.26 543.04 L 1425.79 555.58 L 1403.06 578.26 L 1393.6 564.23 L 1446.69 375.6 L 1485.68 363.18 L 1478.63 391.51 L 1461.65 395.47 L 1448.29 444.28 L 1544.52 429.09 L 1562.63 371.96 L 1515.21 383 L 1497.96 359.27 L 1607.22 324.47 L 1568.02 434.05 Z M 1556.45 489.46 L 1544.68 457.68 L 1441.64 468.59 L 1431.02 507.38 L 1553.94 502.61 L 1556.45 489.46 Z M 1642.04 544.47 L 1609.48 503.38 C 1604.57 497.1 1604.47 492.51 1606.5 484.47 L 1629.43 403.41 L 1612.74 406.33 C 1606.37 407.31 1604.23 404.06 1603.13 402.52 C 1601.73 400.55 1602.03 396.54 1603.16 392.14 L 1623.41 319.26 L 2227.32 126.99 L 1965.24 533.46 C 1949.76 561.29 1942.04 566.05 1914.47 565.07 L 1834.59 561.08 L 1853.49 496.07 L 1878.56 495.87 L 1957.61 327.34 L 1871.45 343.03 L 1797.59 597.69 L 1945.9 614.15 L 2077.3 718.07 L 1698.32 653.01 L 1812.87 817.16 L 1986.3 1003.92 L 1988.9 1011.63 L 1783.58 851.88 L 1582.51 573.83 L 1709.81 587.95 L 1760.91 363.16 L 1694.21 375.3 L 1660.88 497.58 L 1711.42 497.18 L 1699.28 554.14 L 1656.72 551.98 C 1648.08 551.41 1646.21 549.97 1642.04 544.47 Z M 1615.04 251.29 L 1606.66 259.87 L 1180.48 387.68 L 1179.02 413.84 L 1500.09 338.75 L 1495.38 345.4 L 1169.56 447.62 L 1155.47 526.7 L 1178.84 557.56 L 1151.97 969.1 L 1125.1 557.56 L 1148.46 526.7 L 1134.37 447.62 L 808.56 345.4 L 803.84 338.75 L 1124.92 413.84 L 1123.45 387.68 L 697.28 259.87 L 688.89 251.29 L 1151.97 358.91 L 1615.04 251.29 Z"/>
</svg>