<?xml version="1.0" encoding="utf-8"?>
<svg viewBox="1947.696 -2985.447 3135.576 1057.619" width="3135.576" height="1057.619" xmlns="http://www.w3.org/2000/svg" xmlns:bx="https://boxy-svg.com">
  <defs>
    <radialGradient gradientUnits="userSpaceOnUse" cx="240.413" cy="71.471" r="192.99" id="gradient-0" gradientTransform="matrix(0, 1.983322, -1.983322, 0, 5106.824219, -3245.190674)">
      <stop offset="0" style="stop-color: rgba(47, 87, 116, 1)"/>
      <stop offset="1" style="stop-color: rgb(12, 22, 29);"/>
    </radialGradient>
    <radialGradient gradientUnits="userSpaceOnUse" cx="257.031" cy="42.653" r="192.99" id="gradient-1" gradientTransform="matrix(0, 2.27706, -2.27706, 0, 5066.911133, -3354.000488)">
      <stop offset="0" style="stop-color: rgba(28, 51, 69, 1)"/>
      <stop offset="1" style="stop-color: rgb(6, 11, 14);"/>
    </radialGradient>
    <radialGradient gradientUnits="userSpaceOnUse" cx="254.981" cy="151.768" r="124.421" id="gradient-5" gradientTransform="matrix(0, 1.364124, -1.364124, 0, 5173.563965, -3009.571289)">
      <stop offset="0" style="stop-color: rgba(42, 43, 48, 1)"/>
      <stop offset="1" style="stop-color: rgb(0, 8, 10);"/>
    </radialGradient>
    <radialGradient gradientUnits="userSpaceOnUse" cx="250.098" cy="123.638" r="123.081" id="gradient-3" gradientTransform="matrix(1.658399, 0.686931, -0.686931, 1.658399, 4631.141113, -3068.711182)">
      <stop offset="0" style="stop-color: rgba(48, 72, 95, 1)"/>
      <stop offset="1" style="stop-color: rgba(14, 21, 27, 1)"/>
    </radialGradient>
    <radialGradient gradientUnits="userSpaceOnUse" cx="254.312" cy="128.3" r="123.081" id="gradient-4" gradientTransform="matrix(1.14368, 1.218732, -1.218732, 1.14368, 4834.116699, -3131.117187)">
      <stop offset="0" style="stop-color: rgba(36, 54, 71, 1)"/>
      <stop offset="1" style="stop-color: rgb(4, 6, 6);"/>
    </radialGradient>
    <linearGradient gradientUnits="userSpaceOnUse" x1="200.482" y1="192.414" x2="200.482" y2="234.867" id="gradient-7" gradientTransform="matrix(-0.165563, 0, 0, -0.165563, 5109.035645, -2656.372803)">
      <stop offset="0" style="stop-color: rgba(65, 230, 227, 1)"/>
      <stop offset="1" style="stop-color: rgb(255, 255, 255);"/>
    </linearGradient>
    <linearGradient gradientUnits="userSpaceOnUse" x1="318.482" y1="192.414" x2="318.482" y2="234.867" id="gradient-6" gradientTransform="matrix(-0.176164, 0, 0, -0.176164, 5249.460937, -2654.091797)">
      <stop offset="0" style="stop-color: rgba(65, 230, 227, 1)"/>
      <stop offset="1" style="stop-color: rgb(255, 255, 255);"/>
    </linearGradient>
    <linearGradient gradientUnits="userSpaceOnUse" x1="526.291" y1="332.904" x2="526.291" y2="601.008" id="gradient-2" spreadMethod="reflect" gradientTransform="matrix(-0.149102, -0.988822, 0.513159, -0.077378, 352.736298, 1015.151978)">
      <stop offset="0" style="stop-color: rgba(155, 195, 197, 1)"/>
      <stop offset="1" style="stop-color: rgba(92, 155, 158, 1)"/>
    </linearGradient>
  </defs>
  <path style="opacity: 1; fill: rgb(255, 206, 0); paint-order: stroke; stroke-width: 15px; stroke: rgb(109, 71, 0);" d="M 2394.6 -2277.608 L 2425.765 -2692.92 L 2725.136 -2745.133 L 2768.535 -2691.042 L 2762.252 -2822.949 L 2295.102 -2829.402 L 2308.452 -2383.152 L 2195.866 -2762.592 L 2058.782 -2707.382 L 2252.017 -2256.748 L 2394.6 -2277.608 Z"/>
  <path style="opacity: 1; fill: rgb(255, 206, 0); paint-order: stroke; stroke-width: 15px; stroke-miterlimit: 6.28; stroke: rgb(109, 71, 0); transform-origin: 2760.26px -2385.4px;" d="M 2422.866 -2343.832 L 2452.383 -2245.761 C 2492.9 -2222.755 2649.423 -2210.787 2754.302 -2223.748 C 2854.878 -2236.177 2930.482 -2276.008 2950.367 -2415.135 L 2906.013 -2396.461 L 2807.095 -2633.279 L 2936.375 -2683.513 L 2964.536 -2521.177 L 2990.244 -2713.808 L 3139.197 -2696.548 L 3061.695 -2370.571 C 3046.521 -2301.053 3023.477 -2226.43 2958.118 -2160.35 C 2910.469 -2112.18 2813.884 -2072.335 2684.258 -2064.605 C 2505.817 -2053.964 2440.042 -2065.618 2381.916 -2090.496 L 2422.866 -2343.832 Z"/>
  <g transform="matrix(0.991311013699, -0.131535977125, 0.131535977125, 0.991311013699, -2324.980906864817, 101.993302669609)" style="opacity: 1; transform-origin: 4970.44px -2602.6px;">
    <ellipse style="paint-order: markers stroke; stroke-width: 9px; fill: url('#gradient-0'); stroke: url('#gradient-1');" cx="4970.443" cy="-2609.762" rx="192.99" ry="192.99"/>
    <path style="fill: rgb(113, 167, 180); paint-order: markers stroke; stroke-width: 6px; stroke: rgb(74, 119, 120);" d="M 4785.003 -2695.903 L 4797.365 -2695.832 L 4797.364 -2511.594 L 4785.422 -2511.69 L 4769.68 -2556.392 L 4768.473 -2655.072 L 4785.003 -2695.903 Z"/>
    <path style="fill: rgb(162, 197, 198);" d="M 4785.003 -2695.903 L 4785.394 -2695.901 L 4785.394 -2511.77 L 4769.68 -2556.392 L 4768.473 -2655.072 L 4785.003 -2695.903 Z"/>
    <path style="fill: rgb(42, 60, 78);" d="M 4769.186 -2596.743 L 4785.328 -2585.144 L 4797.364 -2585.131 L 4797.364 -2581.039 L 4785.326 -2580.994 L 4769.245 -2591.987 L 4769.186 -2596.743 Z"/>
    <path style="fill: rgb(42, 60, 78);" d="M 4785.451 -2692.499 L 4781.122 -2686.317 L 4782.028 -2688.555 L 4785.462 -2693.372 L 4797.365 -2693.376 L 4797.365 -2692.544 L 4785.451 -2692.499 Z"/>
    <ellipse style="fill: url('#gradient-5');" cx="4970.443" cy="-2609.742" rx="124.421" ry="124.421"/>
    <path style="paint-order: stroke; stroke-width: 7px; fill: url('#gradient-3'); stroke: url('#gradient-4');" d="M 4885.284 -2532.501 C 4885.284 -2532.501 4867.932 -2575.898 4874.739 -2637.326 C 4874.739 -2637.326 4918.114 -2676.304 4989.251 -2705.884 C 4989.251 -2705.884 5045.264 -2653.484 5077.407 -2631.953 C 5077.407 -2631.953 5060.892 -2562.681 5058.569 -2532.974 L 5080 -2550.59 L 5094.431 -2620.738 L 5085.109 -2655.453 L 5066.942 -2686.723 L 5036.156 -2712.599 L 5006.998 -2724.882 L 4968.871 -2728.453 L 4933.651 -2725.179 L 4898.793 -2710.693 L 4877.693 -2692.552 L 4860.174 -2665.489 L 4848.269 -2641.202 L 4848.578 -2618.183 L 4850.621 -2582.847 L 4857.974 -2555.64 L 4885.284 -2532.501 Z"/>
    <path style="fill: rgb(145, 183, 187); paint-order: stroke; stroke: rgb(56, 93, 102); stroke-width: 7px;" d="M 4970.618 -2480.301 L 4880.395 -2527.771 L 4970.618 -2594.778 L 5061.529 -2527.853 L 4970.618 -2480.301 Z"/>
    <rect x="5064.905" y="-2695.415" width="21.876" height="42.453" style="fill: url('#gradient-7');" transform="matrix(1, 0, 0, 1, -163.881058, 76.450394)"/>
    <rect x="5182.905" y="-2695.415" width="21.876" height="42.453" style="fill: url('#gradient-6');" transform="matrix(1, 0, 0, 1, -163.881058, 76.450394)"/>
    <path style="fill: rgb(107, 160, 173);" d="M 5061.529 -2527.853 L 4970.618 -2480.301 L 4970.618 -2594.778 L 5061.529 -2527.853 Z"/>
    <path d="M 526.291 466.956 m -128.043 0 a 128.043 128.043 0 1 0 256.086 0 a 128.043 128.043 0 1 0 -256.086 0 Z M 526.291 466.956 m -108.833 0 a 108.833 108.833 0 0 1 217.666 0 a 108.833 108.833 0 0 1 -217.666 0 Z" style="fill: rgb(83, 129, 145); paint-order: stroke; stroke-width: 9px;" transform="matrix(0.001574999321, 0.999998759688, -0.999998759688, 0.001574999321, 5436.60010296326, -3136.831548969128)" bx:shape="ring 526.291 466.956 108.833 108.833 128.043 128.043 1@5478f11f"/>
    <path d="M 4970.225 -2748.314 C 5019.242 -2748.391 5065.748 -2721.638 5090.324 -2679.227 C 5116.818 -2633.505 5113.551 -2580.674 5090.542 -2540.675 C 5067.532 -2500.676 5023.505 -2471.293 4970.661 -2471.21 C 4921.644 -2471.133 4875.138 -2497.886 4850.562 -2540.297 C 4824.068 -2586.019 4827.335 -2638.85 4850.344 -2678.849 C 4873.354 -2718.848 4917.381 -2748.231 4970.225 -2748.314 Z M 4858.146 -2674.361 C 4836.131 -2636.093 4833.107 -2588.374 4858.35 -2544.809 C 4881.797 -2504.344 4923.88 -2480.137 4970.647 -2480.21 C 5020.996 -2480.289 5060.726 -2506.894 5082.74 -2545.163 C 5104.755 -2583.432 5107.78 -2631.15 5082.536 -2674.715 C 5059.089 -2715.18 5017.006 -2739.388 4970.239 -2739.314 C 4919.89 -2739.235 4880.16 -2712.63 4858.146 -2674.361 Z" style="fill: rgb(76, 110, 118);"/>
    <path d="M 526.291 466.956 m -134.052 0 a 134.052 134.052 0 1 0 268.104 0 a 134.052 134.052 0 1 0 -268.104 0 Z M 526.291 466.956 m -114.829 0 a 114.829 114.829 0 0 1 229.658 0 a 114.829 114.829 0 0 1 -229.658 0 Z" style="stroke-width: 9px; paint-order: stroke; fill: url('#gradient-2');" transform="matrix(0.001574999321, 0.999998759688, -0.999998759688, 0.001574999321, 5436.568852963268, -3136.831548969127)" bx:shape="ring 526.291 466.956 114.829 114.829 134.052 134.052 1@f8bf9d2e"/>
    <rect x="40.285" y="34.2" width="41.477" height="41.684" style="fill: rgb(98, 152, 165); paint-order: markers stroke; stroke: rgb(53, 83, 90); stroke-width: 6px;" transform="matrix(0.768698, -0.639612, 0.639612, 0.768698, 4698.828125, -2778.946045)"/>
    <rect x="40.285" y="34.2" width="41.477" height="41.684" style="fill: rgb(98, 152, 165); paint-order: markers stroke; stroke: rgb(53, 83, 90); stroke-width: 6px;" transform="matrix(-0.768698, -0.639612, -0.639612, 0.768698, 5242.056003, -2778.945781)"/>
    <g transform="matrix(1, 0, 0, 1, 4712.100098, -2811.378418)">
      <path d="M 172.938 286.973 L 201.195 287.747 L 214.653 312.605 L 199.855 336.688 L 171.598 335.915 L 158.14 311.057 L 172.938 286.973 Z" style="fill: rgb(42, 47, 57); stroke: rgb(26, 29, 35); paint-order: markers stroke; stroke-width: 6px;"/>
      <path d="M 177.068 295.005 L 196.582 295.539 L 205.876 312.706 L 195.656 329.338 L 176.143 328.804 L 166.848 311.638 L 177.068 295.005 Z" style="fill: rgb(47, 70, 93); paint-order: markers stroke; stroke-width: 6px;"/>
      <path d="M 179.579 299.937 L 193.723 300.324 L 200.46 312.767 L 193.053 324.823 L 178.908 324.436 L 172.171 311.992 L 179.579 299.937 Z" style="fill: rgb(112, 167, 178); paint-order: markers stroke; stroke-width: 6px;"/>
    </g>
    <g transform="matrix(1, 0, 0, 1, 4712.100098, -2811.378418)">
      <path d="M -21.062 603.771 L 7.195 602.997 L 20.653 578.139 L 5.855 554.056 L -22.402 554.829 L -35.86 579.687 L -21.062 603.771 Z" style="fill: rgb(42, 47, 57); stroke: rgb(26, 29, 35); paint-order: markers stroke; stroke-width: 6px;" transform="matrix(-1, 0, 0, -1, 322.684001, 890.744021)"/>
      <path d="M -16.932 595.739 L 2.582 595.205 L 11.876 578.038 L 1.656 561.406 L -17.857 561.94 L -27.152 579.106 L -16.932 595.739 Z" style="fill: rgb(47, 70, 93); paint-order: markers stroke; stroke-width: 6px;" transform="matrix(-1, 0, 0, -1, 322.684001, 890.744021)"/>
      <path d="M -14.421 590.807 L -0.277 590.42 L 6.46 577.977 L -0.947 565.921 L -15.092 566.308 L -21.829 578.752 L -14.421 590.807 Z" style="fill: rgb(112, 167, 178); paint-order: markers stroke; stroke-width: 6px;" transform="matrix(-1, 0, 0, -1, 322.684001, 890.744021)"/>
    </g>
    <g transform="matrix(1, 0, 0, 1, 4712.170898, -2811.378418)">
      <path style="fill: rgb(47, 58, 68); paint-order: stroke; stroke: rgb(29, 36, 42); stroke-width: 6px;" d="M 312.125 350.809 L 204.662 350.969 L 237.523 313.402 L 279.871 313.554 L 312.125 350.809 Z"/>
      <path style="fill: rgb(65, 75, 83); paint-order: stroke; stroke: rgb(22, 26, 29); stroke-width: 6px;" d="M 197.613 359.63 L 196.452 373.882 L 199.414 375.861 L 204.663 350.968 L 197.613 359.63 Z"/>
      <path style="fill: rgb(65, 75, 83); paint-order: stroke; stroke: rgb(22, 26, 29); stroke-width: 6px;" d="M 312.923 367.532 L 312.125 352.788 L 315.087 350.809 L 320.091 376.232 L 312.923 367.532 Z" transform="matrix(-1, 0, 0, -1, 632.215988, 727.04099)"/>
      <path style="fill: rgb(42, 45, 53); paint-order: stroke; stroke: rgb(23, 24, 28); stroke-width: 6px;" d="M 226.739 337.169 L 288.925 337.21 L 312.125 350.809 L 320.091 374.253 L 289.622 394.616 L 227.222 394.595 L 196.452 373.882 L 204.663 350.968 L 226.739 337.169 Z"/>
    </g>
    <g transform="matrix(1, 0, 0, 1, 4712.170898, -2811.378418)">
      <path d="M 276.401 376.084 L 272.648 379.23 L 257.572 387.768 L 242.641 378.982 L 242.641 378.982 L 238.851 375.773 L 239.03 355.094 L 257.895 344.408 L 276.581 355.404 Z" style="fill: rgb(80, 116, 130); stroke: rgb(51, 73, 82); stroke-width: 2px;"/>
      <path d="M 272.648 379.23 L 257.572 387.768 L 242.64 378.981 L 242.783 361.656 L 257.859 353.117 L 272.792 361.904 L 272.648 379.23 Z" style="fill: rgb(91, 131, 143); stroke: rgb(53, 76, 85); stroke-width: 2px;"/>
      <path d="M 267.349 376.401 L 257.643 381.898 L 248.03 376.241 L 248.122 365.087 L 257.828 359.59 L 267.442 365.247 L 267.349 376.401 Z" style="fill: rgb(41, 46, 55); paint-order: markers stroke; stroke: rgb(26, 29, 35); stroke-width: 2.9px;"/>
    </g>
    <path style="fill: rgb(113, 167, 180); paint-order: markers stroke; stroke-width: 6px; stroke: rgb(74, 119, 120); transform-box: fill-box; transform-origin: 50% 50%;" d="M 5160.05 -2511.593 L 5172.412 -2511.664 L 5172.411 -2695.902 L 5160.469 -2695.806 L 5144.727 -2651.104 L 5143.52 -2552.424 L 5160.05 -2511.593 Z" transform="matrix(-1, 0, 0, -1, 0.000533, -0.000007)"/>
    <path style="fill: rgb(162, 197, 198); transform-box: fill-box; transform-origin: 50% 50%;" d="M 5172.021 -2511.769 L 5172.412 -2511.771 L 5172.412 -2695.902 L 5156.698 -2651.28 L 5155.491 -2552.6 L 5172.021 -2511.769 Z" transform="matrix(-1, 0, 0, -1, 0.00007, -0.000244)"/>
    <path style="fill: rgb(42, 60, 78); transform-box: fill-box; transform-origin: 50% 50%;" d="M 5143.523 -2580.993 L 5159.665 -2592.592 L 5171.701 -2592.605 L 5171.701 -2596.697 L 5159.663 -2596.742 L 5143.582 -2585.749 L 5143.523 -2580.993 Z" transform="matrix(-1, 0, 0, -1, -0.000518, 0.000017)"/>
    <path style="fill: rgb(42, 60, 78); transform-box: fill-box; transform-origin: 50% 50%;" d="M 5147.849 -2687.193 L 5143.52 -2693.375 L 5144.426 -2691.137 L 5147.86 -2686.32 L 5159.763 -2686.316 L 5159.763 -2687.148 L 5147.849 -2687.193 Z" transform="matrix(-1, 0, 0, -1, 0.000061, 0.000001)"/>
    <path style="fill: rgb(44, 48, 53); paint-order: markers stroke; stroke-width: 6px; stroke: rgb(25, 28, 31); transform-box: fill-box; transform-origin: 50% 50%;" d="M 5132.49 -2556.707 L 5141.341 -2561.371 L 5141.079 -2597.024 L 5132.473 -2591.841 L 5132.49 -2556.707 Z" transform="matrix(-1, 0, 0, -1, -0.00052, 0.00002)"/>
    <rect x="-432.704" y="108.015" width="4.292" height="192.664" style="fill: rgb(42, 43, 50); paint-order: markers stroke; stroke: rgb(19, 19, 22); stroke-width: 7px;" transform="matrix(-1, 0, 0, 1, 4712.278503, -2811.378387)"/>
    <path style="fill: rgb(44, 48, 53); paint-order: markers stroke; stroke-width: 6px; stroke: rgb(25, 28, 31);" d="M 4799.562 -2597.025 L 4808.413 -2592.361 L 4808.151 -2556.708 L 4799.545 -2561.891 L 4799.562 -2597.025 Z"/>
    <rect x="4958.985" y="-2779.814" width="4.292" height="192.664" style="fill: rgb(42, 43, 50); paint-order: markers stroke; stroke: rgb(19, 19, 22); stroke-width: 7px;" transform="matrix(1, 0, 0, 1, -163.082672, 76.450394)"/>
    <path d="M 4819.97 -2555.305 L 4789.34 -2568.952 L 4784.057 -2522.959 L 4813.943 -2508.203 L 4819.97 -2555.305 Z M 4812.3 -2549.157 L 4808.643 -2518.851 L 4791.463 -2527.28 L 4794.893 -2557.256 L 4812.3 -2549.157 Z" style="fill: rgb(55, 63, 73); stroke: rgb(33, 38, 44); paint-order: markers stroke; stroke-width: 5px;"/>
    <g transform="matrix(1, 0, 0, 1, 4712.147949, -2811.378418)">
      <path style="fill: rgb(68, 117, 128); paint-order: stroke; stroke: rgb(41, 70, 77); stroke-width: 5px;" d="M 119.488 272.886 L 149.298 256.095 L 152.586 258.801 L 150.169 299.583 L 138.911 290.172 L 140.883 277.642 L 137.965 275.023 L 128.729 281.279 L 119.488 272.886 Z"/>
      <path style="fill: rgb(43, 43, 48); paint-order: markers stroke; stroke: rgb(26, 26, 35); stroke-width: 5px;" d="M 114.158 266.307 L 152.963 299.91 L 155.205 308.453 L 150.995 331.061 L 143.076 335.101 L 91.967 290.577 L 89.383 279.568 L 107.337 267.007 L 114.158 266.307 Z"/>
      <path style="fill: rgb(48, 58, 70); paint-order: stroke; stroke: rgb(23, 30, 38); stroke-width: 5px;" d="M 113.437 275.829 L 109.219 275.855 L 99.422 283.836 L 99.512 287.508 L 139.575 323.239 L 142.466 323.08 L 146.9 309.766 L 146.13 305.15 L 113.437 275.829 Z"/>
    </g>
    <path d="M 5120.916 -2555.305 L 5151.546 -2568.951 L 5156.828 -2522.959 L 5126.942 -2508.203 L 5120.916 -2555.305 Z M 5128.586 -2549.157 L 5132.243 -2518.851 L 5149.422 -2527.28 L 5145.993 -2557.256 L 5128.586 -2549.157 Z" style="fill: rgb(55, 63, 73); stroke: rgb(33, 38, 44); paint-order: markers stroke; stroke-width: 5px;"/>
    <g transform="matrix(1, 0, 0, 1, 4712.147949, -2811.378418)">
      <path style="fill: rgb(68, 117, 128); paint-order: markers stroke; stroke: rgb(41, 70, 77); stroke-width: 5px;" d="M 364.002 282.792 L 393.812 299.583 L 397.1 296.877 L 394.683 256.095 L 383.425 265.506 L 385.397 278.036 L 382.479 280.655 L 373.243 274.399 L 364.002 282.792 Z" transform="matrix(-1, 0, 0, -1, 761.102038, 555.677994)"/>
      <path style="fill: rgb(43, 43, 48); stroke: rgb(26, 26, 35); paint-order: markers stroke; stroke-width: 5px;" d="M 386.158 335.101 L 424.963 301.498 L 427.205 292.955 L 422.995 270.347 L 415.076 266.307 L 363.967 310.831 L 361.383 321.84 L 379.337 334.401 L 386.158 335.101 Z" transform="matrix(-1, 0, 0, -1, 788.588012, 601.408023)"/>
      <path style="fill: rgb(48, 58, 70); paint-order: stroke; stroke: rgb(23, 30, 38); stroke-width: 5px;" d="M 383.703 323.239 L 379.485 323.213 L 369.688 315.232 L 369.778 311.56 L 409.841 275.829 L 412.732 275.988 L 417.166 289.302 L 416.396 293.918 L 383.703 323.239 Z" transform="matrix(-1, 0, 0, -1, 786.854, 599.068036)"/>
    </g>
    <g transform="matrix(1, 0, 0, 1, 4711.857422, -2811.378418)">
      <g>
        <path style="fill: rgb(128, 170, 178); paint-order: markers stroke; stroke-width: 6px;" d="M 59.502 285.227 L 43.559 307.987 L 47.552 324.455 L 41.353 348.728 L 49.43 374.539 L 86.968 405.523 L 109.201 402.326 L 125.729 403.925 L 165.954 409.104 L 181.817 405.18 L 175.601 373.158 C 175.601 373.158 157.814 350.271 125.24 341.469 C 125.24 341.469 119.846 334.725 117.443 323.97 C 117.443 323.97 114.053 301.395 82.485 291.982 L 59.502 285.227 Z"/>
        <path style="fill: rgb(103, 157, 168); paint-order: markers stroke; stroke-linecap: square; stroke-miterlimit: 1.86; stroke-width: 5px;" d="M 165.954 409.104 L 125.729 403.925 L 109.201 402.326 L 86.968 405.523 L 49.43 374.539 L 41.353 348.728 L 47.552 324.455 L 43.59 308.117 C 54.286 308.173 79.503 311.633 103.546 339.552 C 103.546 339.552 107.256 346.306 115.115 353.117 C 115.115 353.117 138.311 357.051 155.699 379.736 L 166.221 409.038 Z"/>
        <path style="fill: rgb(78, 120, 133); paint-order: markers stroke; stroke-width: 5px;" d="M 53.355 324.979 C 53.355 324.979 66.197 328.543 82.439 342.372 C 82.439 342.31 88.482 347.232 91.28 353.191 C 91.28 353.191 93.909 360.014 99.023 365.891 L 107.241 375.434 C 107.241 375.434 113.198 381.872 117.66 385.828 C 117.66 385.828 125.679 393.683 126.108 399.994 C 126.108 399.994 126.423 401.898 125.236 403.877 L 109.201 402.326 L 86.968 405.523 L 49.43 374.539 L 41.353 348.728 L 47.538 324.508 L 53.355 324.979 Z"/>
        <path style="fill: rgb(67, 87, 105); paint-order: markers stroke; stroke-width: 5px;" d="M 86.968 405.523 L 49.43 374.539 L 41.374 348.795 C 45.193 348.196 48.712 348.968 48.712 348.968 C 48.712 348.968 84.162 369.256 108.528 402.423 Z"/>
        <path d="M 83.06 290.067 C 99.235 294.999 108.54 303.363 113.442 310.362 C 118.538 317.525 119.244 322.658 119.414 323.628 C 121.659 333.943 124.871 337.586 126.212 339.444 L 126.413 339.723 L 126.741 339.817 C 159.23 349.162 177.185 371.937 177.185 371.937 L 177.471 372.296 L 184.142 406.665 L 166.071 411.135 L 125.473 405.91 L 109.248 404.34 L 86.376 407.628 L 47.699 375.703 L 39.275 348.783 L 45.49 324.442 L 41.402 307.58 L 58.688 282.903 L 59.376 283.105 L 60.066 283.308 Z M 61.005 287.754 L 60.316 287.551 L 45.716 308.394 L 49.613 324.468 L 43.431 348.673 L 51.161 373.375 L 87.559 403.418 L 109.154 400.312 L 125.89 401.932 L 165.837 407.073 L 179.492 403.696 L 173.729 374.013 L 173.57 373.818 C 170.744 370.359 156.764 351.858 124.706 343.396 L 124.405 343.317 L 124.076 343.231 L 123.689 342.732 C 123.689 342.732 118.108 335.624 115.5 324.446 C 115.38 323.77 114.659 319.149 110.169 312.661 C 105.495 306.029 97.309 298.388 81.902 293.895 Z" style="fill: rgb(48, 67, 79);"/>
      </g>
      <g>
        <path d="M 137.819 399.746 C 137.646 400.767 135.776 401.301 133.642 400.938 C 131.509 400.575 129.921 399.453 130.095 398.432 C 130.268 397.411 132.138 396.878 134.271 397.241 C 136.405 397.604 137.993 398.726 137.819 399.746 Z" style="fill: rgb(48, 52, 58); paint-order: stroke; stroke-width: 20.9002px;"/>
        <path d="M 157.454 402.265 C 157.31 403.259 155.544 403.827 153.51 403.533 C 151.475 403.238 149.943 402.194 150.086 401.2 C 150.23 400.205 151.996 399.638 154.03 399.932 C 156.065 400.226 157.598 401.271 157.454 402.265 Z" style="fill: rgb(48, 52, 58); paint-order: stroke; stroke-width: 20.7577px;"/>
        <path d="M 154.83 388.348 C 154.83 390.04 152.944 391.485 150.618 391.574 C 148.292 391.664 146.407 390.365 146.407 388.673 C 146.407 386.98 148.292 385.535 150.618 385.446 C 152.944 385.356 154.83 386.655 154.83 388.348 Z" style="fill: rgb(48, 52, 58); paint-order: stroke; stroke-width: 17.8857px;"/>
        <path d="M 135.366 388.116 C 135.489 389.592 133.651 390.95 131.26 391.15 C 128.869 391.35 126.831 390.315 126.708 388.84 C 126.584 387.364 128.423 386.005 130.813 385.806 C 133.204 385.606 135.242 386.64 135.366 388.116 Z" style="fill: rgb(48, 52, 58); paint-order: stroke; stroke-width: 19.1072px;"/>
      </g>
    </g>
    <g style="" transform="matrix(-1, 0, 0, 1, 5229.027344, -2811.378418)">
      <g>
        <path style="fill: rgb(128, 170, 178); stroke-width: 6px; paint-order: markers stroke;" d="M 59.502 285.227 L 43.559 307.987 L 47.552 324.455 L 41.353 348.728 L 49.43 374.539 L 86.968 405.523 L 109.201 402.326 L 125.729 403.925 L 165.954 409.104 L 181.817 405.18 L 175.601 373.158 C 175.601 373.158 157.814 350.271 125.24 341.469 C 125.24 341.469 119.846 334.725 117.443 323.97 C 117.443 323.97 114.053 301.395 82.485 291.982 L 59.502 285.227 Z"/>
        <path style="fill: rgb(103, 157, 168);" d="M 165.954 409.104 L 125.729 403.925 L 109.201 402.326 L 86.968 405.523 L 49.43 374.539 L 41.353 348.728 L 47.552 324.455 L 43.59 308.117 C 54.286 308.173 79.503 311.633 103.546 339.552 C 103.546 339.552 107.256 346.306 115.115 353.117 C 115.115 353.117 138.311 357.051 155.699 379.736 L 166.221 409.038 Z"/>
        <path style="fill: rgb(78, 120, 133);" d="M 53.355 324.979 C 53.355 324.979 66.197 328.543 82.439 342.372 C 82.439 342.31 88.482 347.232 91.28 353.191 C 91.28 353.191 93.909 360.014 99.023 365.891 L 107.241 375.434 C 107.241 375.434 113.198 381.872 117.66 385.828 C 117.66 385.828 125.679 393.683 126.108 399.994 C 126.108 399.994 126.423 401.898 125.236 403.877 L 109.201 402.326 L 86.968 405.523 L 49.43 374.539 L 41.353 348.728 L 47.538 324.508 L 53.355 324.979 Z"/>
        <path style="fill: rgb(67, 87, 105);" d="M 86.968 405.523 L 49.43 374.539 L 41.374 348.795 C 45.193 348.196 48.712 348.968 48.712 348.968 C 48.712 348.968 84.162 369.256 108.528 402.423 Z"/>
        <path d="M 83.06 290.067 C 99.235 294.999 108.54 303.363 113.442 310.362 C 118.538 317.525 119.244 322.658 119.414 323.628 C 121.659 333.943 124.871 337.586 126.212 339.444 L 126.413 339.723 L 126.741 339.817 C 159.23 349.162 177.185 371.937 177.185 371.937 L 177.471 372.296 L 184.142 406.665 L 166.071 411.135 L 125.473 405.91 L 109.248 404.34 L 86.376 407.628 L 47.699 375.703 L 39.275 348.783 L 45.49 324.442 L 41.402 307.58 L 58.688 282.903 L 59.376 283.105 L 60.066 283.308 Z M 61.005 287.754 L 60.316 287.551 L 45.716 308.394 L 49.613 324.468 L 43.431 348.673 L 51.161 373.375 L 87.559 403.418 L 109.154 400.312 L 125.89 401.932 L 165.837 407.073 L 179.492 403.696 L 173.729 374.013 L 173.57 373.818 C 170.744 370.359 156.764 351.858 124.706 343.396 L 124.405 343.317 L 124.076 343.231 L 123.689 342.732 C 123.689 342.732 118.108 335.624 115.5 324.446 C 115.38 323.77 114.659 319.149 110.169 312.661 C 105.495 306.029 97.309 298.388 81.902 293.895 Z" style="fill: rgb(48, 67, 79);"/>
      </g>
      <g>
        <path d="M 137.819 399.746 C 137.646 400.767 135.776 401.301 133.642 400.938 C 131.509 400.575 129.921 399.453 130.095 398.432 C 130.268 397.411 132.138 396.878 134.271 397.241 C 136.405 397.604 137.993 398.726 137.819 399.746 Z" style="fill: rgb(48, 52, 58); paint-order: stroke; stroke-width: 20.9002px;"/>
        <path d="M 157.454 402.265 C 157.31 403.259 155.544 403.827 153.51 403.533 C 151.475 403.238 149.943 402.194 150.086 401.2 C 150.23 400.205 151.996 399.638 154.03 399.932 C 156.065 400.226 157.598 401.271 157.454 402.265 Z" style="fill: rgb(48, 52, 58); paint-order: stroke; stroke-width: 20.7577px;"/>
        <path d="M 154.83 388.348 C 154.83 390.04 152.944 391.485 150.618 391.574 C 148.292 391.664 146.407 390.365 146.407 388.673 C 146.407 386.98 148.292 385.535 150.618 385.446 C 152.944 385.356 154.83 386.655 154.83 388.348 Z" style="fill: rgb(48, 52, 58); paint-order: stroke; stroke-width: 17.8857px;"/>
        <path d="M 135.366 388.116 C 135.489 389.592 133.651 390.95 131.26 391.15 C 128.869 391.35 126.831 390.315 126.708 388.84 C 126.584 387.364 128.423 386.005 130.813 385.806 C 133.204 385.606 135.242 386.64 135.366 388.116 Z" style="fill: rgb(48, 52, 58); paint-order: stroke; stroke-width: 19.1072px;"/>
      </g>
    </g>
  </g>
  <path style="opacity: 1; fill: rgb(255, 206, 0); paint-order: stroke; stroke-width: 15px; stroke-miterlimit: 8.63; stroke: rgb(109, 71, 0);" d="M 2877.447 -2832.22 L 3297.352 -2768.98 L 3349.383 -2653.38 L 3360.457 -2628.774 L 3268.697 -2563.401 L 3245.321 -2665.652 L 3213.057 -2514.405 L 3530.777 -2740.754 L 3390.603 -2561.796 L 3506.288 -2304.767 L 3324.15 -2320.843 L 3296.524 -2441.685 L 3183.582 -2297.494 L 3061.559 -2296.494 L 3155.627 -2706.574 L 2975.754 -2737.86 L 2969.16 -2659.253 L 2877.447 -2832.22 Z"/>
  <path style="opacity: 1; fill: rgb(255, 206, 0); paint-order: stroke; stroke-width: 15px; stroke-miterlimit: 9.83; stroke: rgb(109, 71, 0); transform-origin: 3839.52px -2630.31px;" d="M 3685.817 -2575.316 L 3768.815 -2626.511 L 3768.01 -2607.971 L 3870.419 -2653.437 L 3869.258 -2636.488 L 3920.177 -2661.051 L 3937.993 -2669.645 C 3936.931 -2671.08 3935.814 -2672.469 3934.643 -2673.812 C 3922.505 -2687.729 3904.643 -2696.522 3884.725 -2696.522 C 3850.175 -2696.522 3821.805 -2670.059 3818.781 -2636.296 L 3776.947 -2617.722 C 3776.47 -2621.853 3776.224 -2626.053 3776.224 -2630.311 C 3776.224 -2690.235 3824.801 -2738.813 3884.725 -2738.813 C 3899.399 -2738.813 3913.391 -2735.9 3926.156 -2730.621 L 3926.156 -2730.622 C 3958.096 -2717.415 3982.355 -2689.398 3990.374 -2655.131 C 3992.239 -2647.159 3993.225 -2638.851 3993.225 -2630.311 L 3854.445 -2591.056 L 3854.617 -2609.69 L 3825.38 -2600.916 C 3836.208 -2579.097 3858.716 -2564.101 3884.725 -2564.101 C 3909.947 -2564.101 3931.878 -2578.205 3943.056 -2598.956 L 3980.487 -2579.257 C 3962.224 -2545.072 3926.191 -2521.811 3884.725 -2521.811 C 3839.563 -2521.811 3800.845 -2549.405 3784.51 -2588.65 L 3747.795 -2577.634 L 3748.349 -2594.111 L 3685.817 -2575.316 Z" transform="matrix(0.976218998432, -0.216786026955, 0.216786026955, 0.976218998432, -0.000023526758, -0.000008526712)"/>
  <path d="M 3752.991 -2232.774 C 3625.97 -2212.545 3493.638 -2313.207 3457.42 -2457.608 C 3421.205 -2602.009 3494.82 -2735.464 3621.841 -2755.694 C 3680.765 -2765.076 3740.828 -2748.448 3791.911 -2713.505 L 3743.031 -2644.24 C 3712.566 -2666.229 3678.007 -2677.047 3645.435 -2671.86 C 3575.22 -2660.679 3540.817 -2579.35 3568.594 -2490.207 C 3596.37 -2401.065 3675.809 -2337.865 3746.027 -2349.046 C 3790.19 -2356.079 3820.185 -2390.857 3829.454 -2437.878 L 3715.545 -2432.756 L 3700.439 -2401.389 L 3662.346 -2486.456 L 4024.009 -2544.067 L 4056.4 -2581.529 L 4040.557 -2447.371 L 3929.402 -2442.373 L 3953.115 -2167.86 L 3782.973 -2196.941 L 3829.84 -2225.45 L 3831.607 -2263.543 C 3808.7 -2248.109 3782.264 -2237.435 3752.991 -2232.774 Z" style="opacity: 1; fill: rgb(255, 206, 0); paint-order: stroke; stroke-width: 15px; stroke: rgb(109, 71, 0);"/>
  <path style="opacity: 1; fill: rgb(255, 206, 0); paint-order: stroke; stroke-width: 15px; stroke: rgb(109, 71, 0);" d="M 4018.939 -2568.668 L 4064.707 -2652.237 C 4108.251 -2671.823 4283.631 -2712.879 4283.506 -2622.291 C 4283.424 -2562.759 4136.85 -2568.407 4079.273 -2585.951 L 4033.926 -2285.944 L 4139.237 -2258.417 L 4147.879 -2490.832 L 4347.957 -2215.862 L 4504.513 -2339.071 L 4479.775 -2379.256 L 4461.69 -2337.125 L 4216.112 -2503.244 C 4278.686 -2497.438 4406.033 -2525.769 4412.884 -2633.469 C 4423.07 -2793.583 4181.595 -2859.413 3985.147 -2729.498 L 4018.939 -2568.668 Z"/>
  <path style="opacity: 1; fill: rgb(0, 191, 255); paint-order: stroke; stroke-width: 15px; stroke: rgb(0, 75, 107);" d="M 4619.869 -2717.02 L 4561.632 -2719.422 L 4544.477 -2852.612 L 4972.186 -2851.297 L 4950.062 -2703.394 L 4890.394 -2705.856 L 4849.983 -2321.046 L 4912.802 -2319.026 L 4934.119 -2182.552 L 4544.547 -2208.305 L 4578.966 -2329.76 L 4625.943 -2328.25 L 4619.869 -2717.02 Z M 4775.95 -2710.58 L 4734.812 -2712.276 L 4718.921 -2325.261 L 4757.269 -2324.027 L 4775.95 -2710.58 Z"/>
</svg>